
<svg xmlns="http://www.w3.org/2000/svg" viewBox="0 0 25 25"><g fill="#FBF7F4"><path d="M16.2 11.3v-.6h-.3V10h-.3v-.3h-.3v-.3H15v-.3h-.6v-.3h-.9v-.3h-1.8v.3h-.9v.3H10v.3h-.3v.3h-.3v.3h-.3v.6h-.3v.6h-.3v2.5h.3v.6h.3v.7h.3v.3h.3v.3h.3v.3h.6v.3h.9v.3h1.8v-.3h.9v-.3h.8v-.3h.3v-.3h.3V15h.3v-.6h.3v-.6h.3v-2.5h-.3zm-2.1 4.3zM3.7 11.3v-.6h-.3V10h-.3v-.3h-.3v-.3h-.3v-.3h-.7v-.3H.9v-.3H0v8h.9v-.3h.9v-.3h.6v-.3h.3v-.3H3V15h.3v-.6h.3v-.6H4v-2.5h-.3zm-2.1 4.3zM24.1 8.5v.3h-.9v.3h-.6v.3h-.3v.3H22v.3h-.3v.6h-.3v.6H21v2.5h.3v.6h.3v.7h.3v.3h.3v.3h.3v.3h.6v.3h.9v.3h1v-8h-.9zM16.2 23.3v-.6h-.3V22h-.3v-.3h-.3v-.3H15v-.3h-.6v-.3h-.9v-.3h-1.8v.3h-.9v.3H10v.3h-.3v.3h-.3v.3h-.3v.6h-.3v.6h-.3V25h8v-1.8h-.3zM3.7 23.3v-.6h-.3V22h-.3v-.3h-.3v-.3h-.3v-.3h-.7v-.3H.9v-.3H0V25h4v-1.8h-.3zM24.1 20.5v.3h-.9v.3h-.6v.3h-.3v.3H22v.3h-.3v.6h-.3v.6H21V25h4v-4.5h-.9zM8.5 0v.7h.3v.6h.3v.6h.3v.3h.3v.3h.3v.3h.6v.3h.9v.3h1.8v-.2h.9v-.3h.8v-.3h.3v-.3h.3v-.4h.3v-.6h.3V.7h.3V0h-8zm5.6 2.6zM0 0v3.5h.9v-.3h.9v-.3h.6v-.3h.3v-.3H3v-.4h.3v-.6h.3V.7H4V0H0zm1.6 2.6zM21 0v.7h.3v.6h.3v.6h.3v.3h.3v.3h.3v.3h.6v.3h.9v.3h1V0h-4z"/></g></svg>
