<svg xmlns="http://www.w3.org/2000/svg" viewBox="0 0 70 70"><g><path fill="none" d="M0 0h70v70H0z"/><path fill="#fbf7f4" d="M12.35 18.54h2.42v12.21h-2.42zM14.44 14.52h2.42v4.02h-2.42zM16.37 12.44h2.42v2.08h-2.42zM28.73 63.86h2.42v1.87h-2.42zM26.64 57.55h2.42v6.11h-2.42zM28.73 55.46h2.42v2.08h-2.42zM26.64 41.02h2.42v8.19h-2.42zM28.73 36.86h2.42v4.16h-2.42zM30.81 34.92h2.42v1.94h-2.42zM32.89 32.83h2.42v2.08h-2.42zM34.83 30.75h2.42v2.08h-2.42z"/><path d="M26.38 27.77v-5l1.48-.51H32L31.74 25s-2.13 1.58-2.25 1.73-3.11 1.04-3.11 1.04zM19.67 11.13l.65-2.27.91-.86 4.51-2 4.47-2.34s15.82-.1 16 0 2.22 1.35 2.22 1.35l3.77 1.75 2 2.27 2.68 2.61 1 1.25v13.05l-.44 1.49-2.17 1.72-1.93 2.17-2.41.62-.74-15.15-1.56-.64-1.76-2.48-4.6-1.67zM40.55 67l.18-2.18.86-2.11s.32-3.75.32-3.93a25 25 0 00-1.36-2.26l.28-2.09a11.42 11.42 0 011.89.33 5.4 5.4 0 011.18 1.34 18.31 18.31 0 002.1 2.25s-.36 2.67-.32 3.12a25.92 25.92 0 01-.76 3.33l-3 1.59zM44.16 50.25h-2.61l.6-8.52 2.15-1.68.68-2.61.72-1.22 2.69.45-.38 9.94-3.85 3.64z" fill="#f3cd6c"/><path fill="#31312d" d="M16.69 10.19h26.65v2.42H16.69zM43.34 12.19h4.02v2.42h-4.02z"/><path fill="#31312d" d="M47.35 14.26h2.08v2.42h-2.08z"/><path fill="#31312d" d="M49.27 16.53h2.42v18.38h-2.42z"/><path fill="#31312d" d="M51.53 30.72h2.08v2.42h-2.08z"/><path fill="#31312d" d="M53.46 28.64h2.08v2.42h-2.08zM55.55 26.56h2.07v2.42h-2.07z"/><path fill="#31312d" d="M57.31 12.44h2.42v14.29h-2.42zM55.37 10.36h2.42v2.08h-2.42zM53.28 8.28h2.42v2.08h-2.42zM51.2 6.34h2.42v1.94H51.2z"/><path fill="#31312d" d="M47.35 4.08h4.02V6.5h-4.02z"/><path fill="#31312d" d="M28.9 2h18.46v2.42H28.9zM24.87 4.08h4.02V6.5h-4.02zM20.71 6.17h4.16v2.42h-4.16zM18.63 8.25h2.08v2.42h-2.08zM14.44 12.44h2.42v2.08h-2.42zM12.35 14.52h2.42v4.02h-2.42zM10.27 18.54h2.42v12.21h-2.42z"/><path fill="#31312d" d="M12.52 30.58h12.35V33H12.52z"/><path fill="#31312d" d="M24.7 22.57h2.42v8.19H24.7z"/><path fill="#31312d" d="M31.15 28.64h-4.19v-2.43h1.77v-2.03h2.08v-1.61h2.42v4.03h-2.08v2.04z"/><path fill="#31312d" d="M26.96 20.3H35v2.42h-8.04z"/><path fill="#31312d" d="M34.83 22.57h2.42v8.19h-2.42zM47.18 32.83h2.42v14.43h-2.42z"/><path fill="#31312d" d="M45.27 47.1h2.08v2.42h-2.08z"/><path fill="#31312d" d="M45.35 51.46H24.56V41.02h2.42v8.01h18.37v2.43zM26.64 36.86h2.42v4.16h-2.42zM28.73 34.92h2.42v1.94h-2.42zM30.81 32.83h2.42v2.08h-2.42zM32.89 30.75h2.42v2.08h-2.42z"/><path fill="#31312d" d="M40.93 41.02h2.42v8.33h-2.42zM43.02 36.86h2.42v4.16h-2.42zM45.1 34.92h2.42v1.94H45.1zM28.9 65.58h14.14V68H28.9zM26.81 63.48h2.08v2.42h-2.08z"/><path fill="#31312d" d="M24.56 57.55h2.42v6.11h-2.42zM26.64 55.46h2.42v2.07h-2.42z"/><path fill="#31312d" d="M28.9 53.2h14.44v2.42H28.9zM43.34 55.28h1.93v2.42h-1.93z"/><path fill="#31312d" d="M45.1 57.54h2.42v6.11H45.1z"/><path fill="#31312d" d="M43.04 63.48h2.23v2.42h-2.23zM38.99 63.65h2.42v2.29h-2.42z"/><path fill="#31312d" d="M40.93 57.54h2.42v6.11h-2.42z"/><path fill="#31312d" d="M38.99 55.17h2.42v2.38h-2.42z"/></g></svg>