<svg xmlns="http://www.w3.org/2000/svg" viewBox="0 0 70 70"><g><path fill="none" d="M0 0h70v70H0z"/><path d="M64.62 58.53l-2.42-2.34-1.54-1.7-3.27-3.7H55.7v2.52h-2v2.07h-2.45l-1 .81 2.34 1.86 1.84 1.72L57 62.2l1.61 2.5 2 1.45 4.47.29 1.6-1.78v-4.27zm-3.73 3.11h-2v-2h-2v-2h-2v-2h2v2h2v2h2z" fill="#c8c8c7"/><path fill="#fbf7f4" d="M30.87 41.11h1.99v1.99h-1.99zM32.86 43.09h1.99v1.99h-1.99zM35.09 45.18h1.99v1.99h-1.99zM37.07 47.17h1.99v1.99h-1.99zM32.86 38.91h1.99v1.99h-1.99zM35.14 36.9h5.8v1.99h-5.8zM32.86 32.72h2.23v4.05h-2.23zM35.2 30.18h1.88v4.51H35.2z"/><path fill="#fbf7f4" d="M37.07 30.55h1.99v2.16h-1.99z"/><path fill="#fbf7f4" d="M38.95 28.53h1.99v2.16h-1.99zM34.84 40.9h1.99v1.99h-1.99zM39.09 32.71h1.99v1.99h-1.99zM41.3 30.82h1.99v1.99H41.3zM37.07 34.89h1.99v6.01h-1.99zM36.83 42.89h1.99v1.99h-1.99z"/><path fill="#fbf7f4" d="M38.8 44.87h1.99v1.99H38.8zM40.79 46.86h1.99v1.99h-1.99zM30.87 36.93h1.99v1.99h-1.99z"/><path fill="#c8c8c7" d="M35.09 47.17h1.99v2.22h-1.99zM39.09 49.23h6.45v1.99h-6.45z"/><path fill="#c8c8c7" d="M45.54 47.17h4.07v2.25h-4.07zM47.57 45.18h4.07v1.99h-4.07z"/><path fill="#c8c8c7" d="M49.39 43.09h2.26v2.97h-2.26zM51.65 36.98h1.85v6.31h-1.85zM49.7 32.72h1.85v1.85H49.7zM47.79 30.55h1.85v2.16h-1.85z"/><g fill="#f3cd6c"><path d="M30.98 57.52h2.07v2.25h-2.07zM30.82 22.42h2.43v2.43h-2.43z"/><path d="M55.65 18.49h-2.11v-2h2.11v-2.4h-2.11v-3.85h-1.82V8H47V6h-3.5V4.07h-6.17V6h-2.44V4.07h-14l-.16 2.28L16.68 8l-2.63 2.52-2.47 3-1.73.89v2H20.5v-2H23v-2.18h1.82V10H27V8.24h2.13V6h2.1v6.67h-2v1.65h-2.06v-2.08H23v4.23h-6.31v2h-2.23v-2h-6v2H7.35v2H5.28v4.32h-2v18h1.91l.09.7h.79v4h2.18v3.91h1.81v.5h.23v2.22h2.54v-2.71h-2.24v-4.07h1.94V43h-1.94v-1.7h2.16v-2.6h-2.16V37h1.94v-2.11h2.14v4.33h1.79v2h4v2.38h6.14v5.6h2.26v2.21H27v4h1.77v2.15H31v-2.19h2.07v2.15h2.19v-2.15h1.9v-2.06h2.04v-2.07l-.92-.92H35.2V49.2h-1.89v-2.07H31V43h-1v-5.9l1-.1 1-1.67.83-2.5 1.17-.36 1.48-2.26 4.33-1.85v-1.7H35.2v2.17h-6.09v-2.44H25v-2h-2.5v-1.73H25V20.5h5.79v-2.27h4.41v6.62H41v2.44h2.25v-2.46H47v2.24h10.68v-2.68h-2v-2h2V20.5h-2zM10.59 45.73H8.54v-2.18h2.05zm6.21-12.92h-2.22v-2h2.22zm4-6.42v2.51h-4.13V27h2v-1.85h3.82v1.24zM39.09 8.56V6.2h2v2.36zm4.64 2.92h-2.42V9h2.42z"/><path d="M55.64 16.5h1.99v1.99h-1.99zM61.65 20.41h-1.99v-1.93h-1.98v1.99h1.98v1.92h1.99v-1.98zM57.68 22.39h1.99v1.99h-1.99zM61.65 26.64v-1.98h-1.99v1.98h1.97v1.99h1.98v-1.99h-1.96zM61.65 28.93h-1.99v-1.91h-1.98v1.99h1.98v1.9h1.97v1.9h-1.97v4.49h1.99v-4.49h1.96v-1.99h-1.96v-1.89z"/></g><path fill="#31312d" d="M25.16 1.97H43V4.5H25.16zM43.01 3.76h4.01v2.53h-4.01zM47.02 5.8h4.69v2.53h-4.69zM51.71 7.91h1.82v2.53h-1.82zM53.53 9.91h2.11v2.53h-2.11zM55.64 11.85h2.04v2.53h-2.04zM57.68 13.84h1.94v2.53h-1.94z"/><path fill="#31312d" d="M59.25 16.3h2.53v3.83h-2.53z"/><path fill="#31312d" d="M61.35 20.13h2.53v4.53h-2.53zM63.35 24.66h2.53v18.09h-2.53zM61.35 42.75h2.53v4.14h-2.53zM59.25 46.89h2.53v4.2h-2.53zM53.69 46.9h2.02v2.53h-2.02z"/><path fill="#31312d" d="M55.7 48.79h1.94v2.53H55.7zM57.64 50.89h1.98v2.53h-1.98z"/><path fill="#31312d" d="M59.61 52.86h1.81v2.53h-1.81zM61.42 55.09h2.18v2.53h-2.18zM63.61 57.27h2.1v2.53h-2.1z"/><path fill="#31312d" d="M65.47 59.56H68v5.93h-2.53zM59.94 65.5h5.76v2.53h-5.76z"/><path fill="#31312d" d="M57.77 63.19h2.18v2.53h-2.18zM55.7 61.09h2.06v2.53H55.7z"/><path fill="#31312d" d="M53.69 58.83h2.02v2.53h-2.02zM51.46 56.98h2.22v2.53h-2.22zM49.61 54.92h1.85v2.53h-1.85zM47.47 52.86h2.14v2.53h-2.14zM39.2 50.89h6.34v2.53H39.2z"/><path fill="#31312d" d="M45.54 48.95h4.08v2.53h-4.08z"/><path fill="#31312d" d="M49.61 46.9h1.85v2.53h-1.85z"/><path fill="#31312d" d="M51.26 43.03h2.53v4.1h-2.53zM53.15 36.98h2.53v6.05h-2.53z"/><path fill="#31312d" d="M51.26 32.81h2.53v4.17h-2.53zM49.36 30.43h2.53v2.38h-2.53z"/><path fill="#31312d" d="M45.51 28.35h4.14v2.53h-4.14z"/><path fill="#31312d" d="M39.09 26.42h6.42v2.53h-6.42zM35.2 28.35h3.76v2.53H35.2zM33.1 30.46h2.1v2.53h-2.1z"/><path fill="#31312d" d="M30.6 32.81h2.53v4.17H30.6z"/><path fill="#31312d" d="M28.71 36.98h2.53v6.05h-2.53zM30.6 43.03h2.53v4.1H30.6zM32.88 47.13h2.53v2.26h-2.53z"/><path fill="#31312d" d="M35.2 48.95h3.89v2.53H35.2zM47.47 59.12h3.99v2.53h-3.99zM43.11 61.09h4.36v2.53h-4.36zM25.04 63.19h18.07v2.53H25.04zM20.84 60.93h4.2v2.53h-4.2zM16.64 59.12h4.2v2.53h-4.2zM14.42 57.18h2.22v2.53h-2.22zM12.53 55.04h1.89v2.53h-1.89zM10.59 53.4h1.93v2.53h-1.93zM8.53 51.18h2.06v2.53H8.53z"/><path fill="#31312d" d="M6.16 47.5h2.53v3.91H6.16zM4.02 42.85h2.53v4.65H4.02zM2 24.82h2.53v18.03H2zM4.26 20.5h2.53v4.32H4.26zM6.32 16.47h2.53v4.03H6.32zM8.22 14.08h2.53v2.39H8.22zM10.52 12.23h2.53v1.85h-2.53zM12.33 10.01h2.53v2.22h-2.53zM14.31 8.03h2.53v1.98h-2.53z"/><path fill="#31312d" d="M16.69 5.8h3.99v2.53h-3.99zM20.68 3.55h4.49v2.53h-4.49z"/></g></svg>